<svg width="32" height="32" viewBox="0 0 32 32" fill="none" xmlns="http://www.w3.org/2000/svg">
  <defs>
    <linearGradient id="logoGradient" x1="0%" y1="0%" x2="100%" y2="100%">
      <stop offset="0%" stop-color="#1da1f2" />
      <stop offset="100%" stop-color="#6c5ce7" />
    </linearGradient>
  </defs>
  <path d="M16 2C10.48 2 6 6.48 6 12C6 19.5 16 30 16 30C16 30 26 19.5 26 12C26 6.48 21.52 2 16 2ZM16 16C13.79 16 12 14.21 12 12C12 9.79 13.79 8 16 8C18.21 8 20 9.79 20 12C20 14.21 18.21 16 16 16Z" fill="url(#logoGradient)"/>
  <circle cx="16" cy="12" r="4" fill="#FFFFFF"/>
</svg> 